# xmcd
#
# Track frame offsets:
#	150
#	15360
#	30687
#	47676
#	66279
#	85211
#	101861
#	120217
#	132948
#	150897
#	168656
#	185482
#	203548
#	218985
#	233211
#	250494
#	266458
#	281196
#	297303
#	314742
#	330502
#	345163
#
# Disc length: 4795 seconds
#
# Revision: 1
# Processed by: cddbd v1.5.2PL0 Copyright (c) Steve Scherf et al.
# Submitted via: audiograbber 1.83.01
#
DISCID=3c12b916
DTITLE=Various Artist - Hit Country 2009
DYEAR=2009
DGENRE=Country
TTITLE0=Country Singer - Jasmine Rae
TTITLE1=Our Song - Taylor Swift
TTITLE2=Blame It On Eve - Adam Brand
TTITLE3=Little By Little - Chasing Bailey
TTITLE4=Once In A Life Time - Keith Urban
TTITLE5=Beautiful Life - Doc Walker
TTITLE6=Stronger Woman - Jewel
TTITLE7=Lucky Girl - Catherine Britt
TTITLE8=Dust - Steve Ford
TTITLE9=Moments - Emerson Drive
TTITLE10=Rattlin' Bones - Kasey Chambers and Shane Nicholson
TTITLE11=Finaly Over Blue - The Mcclymonts
TTITLE12=You Get Me - Sinead Burgess
TTITLE13=Crazy Ex Girlfriend - Miranda Lambert
TTITLE14=Wrecking Ball - Gary Allan
TTITLE15=As If - Sara Evans
TTITLE16=Crazy Days - Adam Gregory
TTITLE17=All I Want To Do - Sugarland
TTITLE18=Love Don't Live Here - Lady Antebellum
TTITLE19=Rip It Up  - Travis Collins
TTITLE20=That Song In My Head - Julianne Hough
TTITLE21=No More Me And You - Amanda Wilkinson
EXTD=
EXTT0=
EXTT1=
EXTT2=
EXTT3=
EXTT4=
EXTT5=
EXTT6=
EXTT7=
EXTT8=
EXTT9=
EXTT10=
EXTT11=
EXTT12=
EXTT13=
EXTT14=
EXTT15=
EXTT16=
EXTT17=
EXTT18=
EXTT19=
EXTT20=
EXTT21=
PLAYORDER=
